<svg xmlns="http://www.w3.org/2000/svg" >
  <defs>
    <symbol id="getir" xmlns="http://www.w3.org/2000/svg" xml:space="preserve" viewBox="0 0 136.1 136.1">
            <g>
                <path d="M68.1,0C30.5,0,0,30.5,0,68.1c0,37.6,30.5,68,68,68c37.6,0,68-30.5,68-68C136.1,30.5,105.6,0,68.1,0z M30.7,90
		c-3.7,0-8.1-1.8-10-4.3c0,0,0.7-3.2,3.3-3.2c1,0,1.8,0.6,2.8,1c1.1,0.5,2.4,1,4,1c3.4,0,4.8-2.3,4.8-5.7v-3
		c-0.5,0.4-2.5,1.9-5.9,1.9c-6.6,0-10.2-5.5-10.2-11.5c0-6.4,3.9-11.7,11.5-11.7c7.7,0,11.1,5.2,11.1,12.9v9.8
		C42,85.8,38,90,30.7,90z M57.4,74.7c1.2,0,2.4-0.3,3.6-0.7c0.9-0.4,1.7-0.8,2.9-0.8c2.1,0,2.9,3,2.9,3c-1.1,1.6-5.6,3.9-9.7,3.9
		c-7.3,0-11.5-5.2-11.5-12.1c0-9.1,6-13.2,11.7-13.2c6,0,10.1,3.3,10.1,8.3c0,3.5-1.9,6.9-10,6.9c-3.8,0-5.4-0.5-5.4-0.5
		C51.8,73.9,55.3,74.7,57.4,74.7L57.4,74.7z M80.3,80.1c-6.2,0-9.5-4.5-9.5-11.3l0.1-16.7c0-2.1,0.6-3.6,1.7-4.6
		c1.1-0.9,2.8-1.4,4.9-1.4c0,0.2-0.1,0.6-0.1,1c0,0.4-0.1,0.9-0.1,1.6s0,1.5,0,2.6l0.1,3.3h7.1c0,1.6-0.4,2.9-1.3,3.8
		c-0.9,1-2.1,1.4-3.8,1.4h-2l-0.1,7.5c0,1.3,0.1,2.6,0.4,3.9c0.3,1,1.7,3.3,4.5,3.3c1.1,0,2.1-0.1,3.2-0.4c0.2,0.5,0.2,1.1,0.2,1.6
		C85.6,78.5,83.4,80.1,80.3,80.1L80.3,80.1z M89.4,48c0.3-0.6,0.8-1.1,1.4-1.4c0.5-0.3,1.2-0.5,1.8-0.5c0.6,0,1.1,0.2,1.6,0.4
		c0.6,0.3,1,0.7,1.3,1.2c0.3,0.5,0.4,1.1,0.4,1.7c0,0.6-0.2,1.3-0.5,1.8c-0.8,1.3-1.8,1.9-3.1,1.9c-0.6,0-1.1-0.1-1.6-0.4
		c-0.5-0.3-1-0.7-1.2-1.3c-0.3-0.5-0.4-1.2-0.4-1.8C88.9,49.2,89.1,48.6,89.4,48L89.4,48z M95.3,80.1c-3.5,0.1-6.4-2.3-6.4-6.7
		L89,61.2c0-2.1,0.6-3.6,1.7-4.6c1.1-0.9,2.8-1.4,5-1.4c0,0.2-0.1,0.6-0.1,1c0,0.4-0.1,0.9-0.1,1.6c0,0.7,0,1.5,0,2.6v12
		c0,1.6,0.9,2.6,2.3,2.6c0.5,0,1.1-0.1,1.6-0.2c0.1,0.6,0.2,1.2,0.2,1.8C99.5,78.9,97.6,80,95.3,80.1L95.3,80.1z M112.7,60.6
		c-3.7,0.3-4,3-4,5.1v8.8c0,1.1,0,1.9,0,2.6c0,0.7,0,1.2,0.1,1.6c0,0.4,0.1,1,0.1,1.2c-2.2,0-3.8,0-5.2-1.1c-1.3-1-1.6-2.9-1.6-5.1
		v-6.9c0-2.4,0.3-4.3,1-5.8c0.7-1.5,1.6-2.7,2.7-3.5c1.1-0.8,2.3-1.4,3.7-1.7c1.3-0.3,2.7-0.4,4.1-0.4h2.6c0.3,0.6,0.4,1.6,0.4,2.1
		C116.6,59.6,114.8,60.4,112.7,60.6z" fill="#FFD300" />
              <path
                      d="M61.4,63c0-1.4-1.3-2.9-4.1-2.9c-3.5,0-5.3,2.7-5.3,5c0,0,1.5,0.5,5.3,0.5C60,65.7,61.4,64.7,61.4,63z"
                      fill="#FFD300" />
              <path
                      d="M30.9,60.1c-2.8,0-5,2.2-5,6.3c0,3.9,2.2,5.7,5,5.7c2.6,0,4.7-1.5,4.7-6C35.6,61.8,33.6,60.1,30.9,60.1z"
                      fill="#FFD300" />
              <path d="M67.2,63c0-5-4.1-8.3-10.1-8.3c-5.7,0-11.7,4.1-11.7,13.2c0,7,4.2,12.1,11.5,12.1c4.1,0,8.6-2.3,9.7-3.9
		c0,0-0.8-3-2.9-3c-1.1,0-1.9,0.4-2.9,0.8c-1.1,0.5-2.3,0.7-3.6,0.7c-2,0-5.5-0.8-5.5-5.2c0,0,1.6,0.5,5.4,0.5
		C65.3,70,67.2,66.5,67.2,63z M57.3,60.2c2.8,0,4.1,1.5,4.1,2.9c0,1.6-1.5,2.7-4.1,2.7c-3.8,0-5.3-0.5-5.3-0.5
		C52,62.8,53.8,60.2,57.3,60.2z" fill="#5D3EBC" />
              <path d="M82.2,74.7c-2.8,0-4.2-2.3-4.5-3.3c-0.3-1.3-0.5-2.6-0.4-3.9l0.1-7.5h2c1.6,0,2.9-0.5,3.8-1.4
		c0.9-1,1.3-2.2,1.3-3.8h-7.1l-0.1-3.3c0-1.1,0-1.9,0-2.6c0-0.7,0-1.2,0.1-1.6c0-0.4,0.1-0.8,0.1-1c-2.2,0-3.8,0.5-4.9,1.4
		c-1.1,0.9-1.7,2.4-1.7,4.6l-0.1,16.7c0,6.8,3.2,11.3,9.5,11.3c3.1,0,5.3-1.6,5.3-4.1c0-0.5-0.1-1.1-0.2-1.6
		C84.3,74.6,83.3,74.7,82.2,74.7z" fill="#5D3EBC" />
              <path d="M90.6,52.8c0.5,0.3,1.1,0.4,1.6,0.4c1.3,0,2.4-0.6,3.1-1.9c0.3-0.6,0.5-1.2,0.5-1.8c0-0.6-0.1-1.2-0.4-1.7
		c-0.3-0.5-0.7-1-1.3-1.2c-0.5-0.3-1-0.4-1.6-0.4c-0.6,0-1.2,0.2-1.8,0.5c-0.6,0.3-1,0.8-1.4,1.4c-0.3,0.5-0.5,1.1-0.5,1.8
		c0,0.6,0.1,1.2,0.4,1.8C89.7,52.1,90.1,52.5,90.6,52.8z" fill="#5D3EBC" />
              <path d="M97.8,75c-1.4,0-2.3-1-2.3-2.6v-12c0-1.1,0-1.9,0-2.6c0-0.7,0-1.2,0.1-1.6c0-0.4,0.1-0.8,0.1-1
		c-2.2,0-3.8,0.5-5,1.4c-1.1,0.9-1.7,2.4-1.7,4.5L89,73.4c0,4.4,2.8,6.8,6.4,6.7c2.2-0.1,4.2-1.2,4.2-3.5c0-0.6-0.1-1.2-0.2-1.8
		C98.8,75,98.3,75,97.8,75z" fill="#5D3EBC" />
              <path d="M113.6,55.3c-1.4,0-2.7,0.2-4,0.4c-1.3,0.3-2.6,0.9-3.7,1.7c-1.1,0.8-2,2-2.7,3.5c-0.7,1.5-1,3.4-1,5.8v6.9
		c0,2.1,0.3,4.1,1.6,5.1c1.4,1.1,3,1.1,5.2,1.1c0-0.2-0.1-0.8-0.1-1.2c0-0.4-0.1-0.9-0.1-1.6c0-0.7,0-1.5,0-2.6v-8.8
		c0-2.1,0.3-4.8,4-5.1c2.1-0.2,3.9-1,3.9-3.2c0-0.5-0.1-1.5-0.4-2.1L113.6,55.3z" fill="#5D3EBC" />
              <path d="M30.9,54.7c-7.5,0-11.5,5.3-11.5,11.7c0,5.9,3.6,11.5,10.2,11.5c3.4,0,5.4-1.4,5.9-1.9v3
		c0,3.4-1.3,5.7-4.8,5.7c-1.7,0-2.9-0.4-4-1c-1-0.5-1.8-1-2.8-1c-2.6,0-3.3,3.2-3.3,3.2c1.9,2.5,6.3,4.3,10,4.3
		C38,90,42,85.8,42,77.4v-9.8C42,59.9,38.6,54.7,30.9,54.7z M30.9,72.2c-2.8,0-5-1.8-5-5.7c0-4.2,2.2-6.3,5-6.3c2.7,0,4.7,1.6,4.7,6
		C35.6,70.6,33.5,72.2,30.9,72.2L30.9,72.2z" fill="#5D3EBC" />
            </g>
        </symbol>
    <symbol id="react" width="15" height="16" viewBox="0 0 14 14" fill="none" xmlns="http://www.w3.org/2000/svg">
      <path
              d="M12.3029 5.50126C12.3029 4.68299 11.2822 3.90753 9.71741 3.42664C10.0785 1.82536 9.91803 0.551385 9.21085 0.143511C9.04785 0.047837 8.85726 0.0025177 8.64912 0.0025177V0.563973C8.76447 0.563973 8.85726 0.586633 8.935 0.629435C9.27605 0.825818 9.42401 1.57359 9.30865 2.53536C9.28107 2.77203 9.23593 3.02129 9.18076 3.27558C8.68924 3.15473 8.15259 3.06157 7.58836 3.00114C7.24981 2.53536 6.89873 2.11238 6.54515 1.74227C7.36266 0.9794 8.13002 0.561456 8.65163 0.561456V0C7.96201 0 7.05923 0.493477 6.14642 1.34951C5.23361 0.498512 4.33083 0.010071 3.64121 0.010071V0.571527C4.16031 0.571527 4.93017 0.986953 5.74769 1.74479C5.39661 2.1149 5.04553 2.53536 4.712 3.00114C4.14526 3.06157 3.60861 3.15473 3.11709 3.2781C3.05942 3.02632 3.01679 2.7821 2.98669 2.54795C2.86883 1.58618 3.01428 0.838407 3.35282 0.639506C3.42805 0.594186 3.52585 0.574044 3.64121 0.574044V0.0125887C3.43056 0.0125887 3.23997 0.0579079 3.07446 0.153582C2.36979 0.561456 2.21181 1.83291 2.57543 3.42916C1.01563 3.91257 0 4.68551 0 5.50126C0 6.31952 1.02064 7.09499 2.58546 7.57587C2.22435 9.17716 2.38484 10.4511 3.09202 10.859C3.25502 10.9547 3.44561 11 3.65625 11C4.34588 11 5.24865 10.5065 6.16146 9.65049C7.07427 10.5015 7.97705 10.9899 8.66667 10.9899C8.87732 10.9899 9.06791 10.9446 9.23342 10.8489C9.93809 10.4411 10.0961 9.1696 9.73245 7.57336C11.2872 7.09247 12.3029 6.31701 12.3029 5.50126ZM9.03782 3.82193C8.94503 4.14672 8.82968 4.48157 8.69927 4.81643C8.59646 4.61501 8.48863 4.4136 8.37076 4.21218C8.25541 4.01076 8.13253 3.81437 8.00965 3.62303C8.36575 3.6759 8.70931 3.74136 9.03782 3.82193ZM7.88928 6.50332C7.69368 6.84321 7.49306 7.16548 7.28492 7.46509C6.91127 7.49782 6.53261 7.51545 6.15143 7.51545C5.77277 7.51545 5.3941 7.49783 5.02296 7.46761C4.81482 7.168 4.61169 6.84825 4.41609 6.51087C4.22551 6.18105 4.05247 5.84619 3.89449 5.50881C4.04997 5.17143 4.22551 4.83406 4.41358 4.50423C4.60919 4.16434 4.8098 3.84207 5.01794 3.54246C5.39159 3.50973 5.77026 3.4921 6.15143 3.4921C6.5301 3.4921 6.90876 3.50973 7.27991 3.53994C7.48805 3.83955 7.69117 4.1593 7.88677 4.49668C8.07736 4.8265 8.25039 5.16136 8.40838 5.49874C8.25039 5.83612 8.07736 6.17349 7.88928 6.50332ZM8.69927 6.17601C8.83469 6.51339 8.95005 6.85077 9.04534 7.17807C8.71683 7.25864 8.37076 7.32662 8.01216 7.37949C8.13504 7.18563 8.25792 6.98672 8.37327 6.78279C8.48863 6.58137 8.59646 6.37743 8.69927 6.17601ZM6.15645 8.86244C5.92323 8.62074 5.69001 8.35134 5.4593 8.05676C5.685 8.06683 5.91571 8.07439 6.14893 8.07439C6.38465 8.07439 6.61787 8.06935 6.84607 8.05676C6.62038 8.35134 6.38716 8.62074 6.15645 8.86244ZM4.29071 7.37949C3.93461 7.32662 3.59105 7.26116 3.26254 7.18059C3.35533 6.8558 3.47068 6.52094 3.60108 6.18608C3.7039 6.3875 3.81173 6.58892 3.92959 6.79034C4.04746 6.99176 4.16783 7.18814 4.29071 7.37949ZM6.14391 2.14008C6.37713 2.38178 6.61035 2.65118 6.84106 2.94575C6.61536 2.93568 6.38465 2.92813 6.15143 2.92813C5.91571 2.92813 5.68249 2.93317 5.45429 2.94575C5.67998 2.65118 5.9132 2.38178 6.14391 2.14008ZM4.2882 3.62303C4.16532 3.81689 4.04244 4.01579 3.92709 4.21973C3.81173 4.42115 3.7039 4.62257 3.60108 4.82399C3.46567 4.48661 3.35031 4.14923 3.25502 3.82193C3.58353 3.74388 3.9296 3.6759 4.2882 3.62303ZM2.01871 6.77523C1.13098 6.39506 0.556713 5.89654 0.556713 5.50126C0.556713 5.10597 1.13098 4.60494 2.01871 4.22728C2.23438 4.13413 2.4701 4.05104 2.71335 3.97299C2.85629 4.46647 3.04437 4.98009 3.27759 5.50629C3.04688 6.02998 2.86131 6.54108 2.72088 7.03204C2.47261 6.95399 2.23689 6.86839 2.01871 6.77523ZM3.36787 10.3731C3.02682 10.1767 2.87886 9.42893 2.99422 8.46715C3.0218 8.23049 3.06694 7.98123 3.12211 7.72694C3.61362 7.84779 4.15027 7.94095 4.71451 8.00137C5.05305 8.46715 5.40413 8.89013 5.75772 9.26024C4.94021 10.0231 4.17284 10.4411 3.65124 10.4411C3.53839 10.4385 3.4431 10.4159 3.36787 10.3731ZM9.31617 8.45457C9.43404 9.41634 9.28859 10.1641 8.95005 10.363C8.87481 10.4083 8.77701 10.4285 8.66166 10.4285C8.14256 10.4285 7.37269 10.013 6.55518 9.25521C6.90626 8.8851 7.25734 8.46464 7.59086 7.99886C8.15761 7.93843 8.69426 7.84527 9.18577 7.7219C9.24345 7.9762 9.28859 8.22042 9.31617 8.45457ZM10.2816 6.77523C10.066 6.86839 9.83026 6.95148 9.58701 7.02953C9.44407 6.53605 9.25599 6.02243 9.02277 5.49622C9.25348 4.97253 9.43905 4.46143 9.57948 3.97047C9.82775 4.04852 10.0635 4.13413 10.2842 4.22728C11.1719 4.60746 11.7462 5.10597 11.7462 5.50126C11.7436 5.89654 11.1694 6.39757 10.2816 6.77523Z"
              fill="#61DAFB" />
      <path
              d="M6.13697 6.65389C6.77191 6.65389 7.28663 6.13725 7.28663 5.49994C7.28663 4.86263 6.77191 4.34599 6.13697 4.34599C5.50203 4.34599 4.9873 4.86263 4.9873 5.49994C4.9873 6.13725 5.50203 6.65389 6.13697 6.65389Z"
              fill="#61DAFB" />
    </symbol>
    <symbol xmlns="http://www.w3.org/2000/svg" viewBox="0 0 1052 1052" id="javascript">
      <path fill="#f0db4f" d="M0 0h1052v1052H0z" />
      <path
              d="M965.9 801.1c-7.7-48-39-88.3-131.7-125.9-32.2-14.8-68.1-25.399-78.8-49.8-3.8-14.2-4.3-22.2-1.9-30.8 6.9-27.9 40.2-36.6 66.6-28.6 17 5.7 33.1 18.801 42.8 39.7 45.4-29.399 45.3-29.2 77-49.399-11.6-18-17.8-26.301-25.4-34-27.3-30.5-64.5-46.2-124-45-10.3 1.3-20.699 2.699-31 4-29.699 7.5-58 23.1-74.6 44-49.8 56.5-35.6 155.399 25 196.1 59.7 44.8 147.4 55 158.6 96.9 10.9 51.3-37.699 67.899-86 62-35.6-7.4-55.399-25.5-76.8-58.4-39.399 22.8-39.399 22.8-79.899 46.1 9.6 21 19.699 30.5 35.8 48.7 76.2 77.3 266.899 73.5 301.1-43.5 1.399-4.001 10.6-30.801 3.199-72.101zm-394-317.6h-98.4c0 85-.399 169.4-.399 254.4 0 54.1 2.8 103.7-6 118.9-14.4 29.899-51.7 26.2-68.7 20.399-17.3-8.5-26.1-20.6-36.3-37.699-2.8-4.9-4.9-8.7-5.601-9-26.699 16.3-53.3 32.699-80 49 13.301 27.3 32.9 51 58 66.399 37.5 22.5 87.9 29.4 140.601 17.3 34.3-10 63.899-30.699 79.399-62.199 22.4-41.3 17.6-91.3 17.4-146.6.5-90.2 0-180.4 0-270.9z"
              fill="#323330" />
    </symbol>
  </defs>
</svg>
